<?xml version="1.0" encoding="UTF-8" standalone="no"?>
<!-- Created with Inkscape (http://www.inkscape.org/) -->

<svg
   xmlns:dc="http://purl.org/dc/elements/1.1/"
   xmlns:cc="http://creativecommons.org/ns#"
   xmlns:rdf="http://www.w3.org/1999/02/22-rdf-syntax-ns#"
   xmlns:svg="http://www.w3.org/2000/svg"
   xmlns="http://www.w3.org/2000/svg"
   xmlns:sodipodi="http://sodipodi.sourceforge.net/DTD/sodipodi-0.dtd"
   xmlns:inkscape="http://www.inkscape.org/namespaces/inkscape"
   width="440mm"
   height="65mm"
   viewBox="0 0 1559.0552 230.31496"
   id="svg3429"
   version="1.1"
   inkscape:version="0.91 r13725"
   sodipodi:docname="gdg-logo.svg">
  <defs
     id="defs3431" />
  <sodipodi:namedview
     id="base"
     pagecolor="#ffffff"
     bordercolor="#666666"
     borderopacity="1.0"
     inkscape:pageopacity="0.0"
     inkscape:pageshadow="2"
     inkscape:zoom="0.35"
     inkscape:cx="375"
     inkscape:cy="520"
     inkscape:document-units="px"
     inkscape:current-layer="layer1"
     showgrid="false"
     inkscape:window-width="1920"
     inkscape:window-height="1016"
     inkscape:window-x="0"
     inkscape:window-y="27"
     inkscape:window-maximized="1" />
  <metadata
     id="metadata3434">
    <rdf:RDF>
      <cc:Work
         rdf:about="">
        <dc:format>image/svg+xml</dc:format>
        <dc:type
           rdf:resource="http://purl.org/dc/dcmitype/StillImage" />
        <dc:title></dc:title>
      </cc:Work>
    </rdf:RDF>
  </metadata>
  <g
     inkscape:label="Layer 1"
     inkscape:groupmode="layer"
     id="layer1"
     transform="translate(0,-822.07165)">
    <path
       id="XMLID_3_"
       class="st0"
       d="m 368.508,947.57728 c 0,22 -6.5,39.6 -19.6,52.70002 -14.8,15.6 -34.1,23.4 -57.9,23.4 -22.8,0 -42.1,-7.9 -58.1,-23.70002 -15.9,-15.8 -23.9,-35.4 -23.9,-58.7 0,-23.3 8,-42.9 23.9,-58.7 15.9,-15.8 35.3,-23.7 58.1,-23.7 11.3,0 22.1,2.2 32.4,6.6 10.3,4.4 18.5,10.3 24.7,17.6 l -13.9,13.9 c -10.5,-12.6 -24.9,-18.8 -43.3,-18.8 -16.6,0 -31,5.8 -43.1,17.5 -12.1,11.7 -18.2,26.8 -18.2,45.5 0,18.7 6.1,33.8 18.2,45.5 12.1,11.7 26.5,17.50002 43.1,17.50002 17.6,0 32.3,-5.90002 44.1,-17.60002 7.6,-7.6 12,-18.3 13.2,-31.9 l -57.3,0 0,-19 76.4,0 c 0.8,4.1 1.2,8.1 1.2,11.9 z"
       inkscape:connector-curvature="0"
       style="display:inline;fill:#757575" />
    <path
       id="XMLID_20_"
       class="st0"
       d="m 388.908,1020.0773 0,-157.80002 48.2,0 c 24.2,0 43.6,7.3 58.2,21.9 14.5,14.6 21.8,33.6 21.8,57 0,23.4 -7.3,42.3 -21.8,57 -14.5,14.60002 -33.9,21.90002 -58.2,21.90002 l -48.2,0 z m 20.3,-19.4 28,0 c 18.2,0 32.6,-5.20002 43.3,-15.60002 10.6,-10.4 16,-25 16,-43.8 0,-18.7 -5.3,-33.2 -16,-43.7 -10.7,-10.5 -25.1,-15.8 -43.3,-15.8 l -28,0 0,118.90002 z"
       inkscape:connector-curvature="0"
       style="display:inline;fill:#757575" />
    <path
       id="XMLID_23_"
       class="st0"
       d="m 689.608,947.57728 c 0,22 -6.5,39.6 -19.6,52.70002 -14.8,15.6 -34.1,23.4 -57.9,23.4 -22.8,0 -42.1,-7.9 -58.1,-23.70002 -15.9,-15.8 -23.9,-35.4 -23.9,-58.7 0,-23.3 8,-42.9 23.9,-58.7 15.9,-15.8 35.3,-23.7 58.1,-23.7 11.3,0 22.1,2.2 32.4,6.6 10.3,4.4 18.5,10.3 24.7,17.6 l -13.9,13.9 c -10.5,-12.6 -24.9,-18.8 -43.3,-18.8 -16.6,0 -31,5.8 -43.1,17.5 -12.1,11.7 -18.2,26.8 -18.2,45.5 0,18.7 6.1,33.8 18.2,45.5 12.1,11.7 26.5,17.50002 43.1,17.50002 17.6,0 32.3,-5.90002 44.1,-17.60002 7.6,-7.6 12,-18.3 13.2,-31.9 l -57.3,0 0,-19 76.4,0 c 0.8,4.1 1.2,8.1 1.2,11.9 z"
       inkscape:connector-curvature="0"
       style="display:inline;fill:#757575" />
    <text
       xml:space="preserve"
       style="font-style:normal;font-weight:normal;font-size:40px;line-height:125%;font-family:Sans;letter-spacing:0px;word-spacing:0px;display:inline;fill:#666666;fill-opacity:1;stroke:none;stroke-width:1px;stroke-linecap:butt;stroke-linejoin:miter;stroke-opacity:1"
       x="748.25623"
       y="1009.557"
       id="text3358"
       sodipodi:linespacing="125%"><tspan
         sodipodi:role="line"
         id="tspan3360"
         x="748.25623"
         y="1009.557"
         style="font-style:normal;font-variant:normal;font-weight:normal;font-stretch:normal;font-size:195px;font-family:'DejaVu Sans';-inkscape-font-specification:'DejaVu Sans';fill:#666666">Sudbury</tspan></text>
    <g
       transform="translate(-86.392004,692.17728)"
       id="XMLID_261_">
      <path
         inkscape:connector-curvature="0"
         id="XMLID_259_"
         class="st0"
         d="M 127.3,151 95,151 187.3,311 203.5,283 127.3,151 Z" />
      <path
         inkscape:connector-curvature="0"
         id="XMLID_258_"
         class="st0"
         d="m 215.9,242 -52.6,-91 -32.2,0 74.3,128.8 10.5,-18.2 c 1.7,-2.8 2.8,-6.2 2.8,-9.8 -0.1,-3.6 -1.1,-6.9 -2.8,-9.8 z" />
      <path
         inkscape:connector-curvature="0"
         id="XMLID_257_"
         class="st0"
         d="m 151.3,255.1 -55.4,95.9 32.3,0 39.3,-68 -16.2,-27.9 z" />
      <path
         inkscape:connector-curvature="0"
         id="XMLID_256_"
         class="st0"
         d="M 169.3,286.3 132,351 l 32.2,0 21.3,-36.8 -16.2,-27.9 z" />
    </g>
  </g>
</svg>
